<svg version="1.2" xmlns="http://www.w3.org/2000/svg" viewBox="0 0 259 41" width="259" height="41"><style>.a{fill:#f00}</style><path  d="m28.6 4.2l-10.4 32.7h-7.8l-10.4-32.7h6.5l7.8 24.5 7.8-24.5h6.5zm1.8 32.6v-32.7h6.2v32.7zm33.7-8.9c0 4.9-4.1 9-9 9h-14.7v-6.2l8-8.1-3.2-1.1c-3.6-1.3-6-4.7-6-8.5 0-4.9 4-8.9 8.9-8.9h13.7v6.2h-13.7c-1.5 0-2.8 1.2-2.8 2.7 0 1.2 0.8 2.3 1.9 2.7l10.9 3.7c3.6 1.3 6 4.7 6 8.5zm-6.2 0c0-1.2-0.8-2.2-1.9-2.6l-1.2-0.4-5.7 5.8h6c1.5 0 2.8-1.3 2.8-2.8zm8.3 8.9v-32.7h6.2v32.7zm26-26.5v26.5h-6.1v-26.5h-10.7v-6.2h27.5v6.2z"/><path class="a" d="m189.7 15.1c0-5.5-3.7-10-8.8-11.2v-3.7h-5.3v3.7c-5.2 1.2-8.9 5.7-8.9 11.2 0 6.1-1.5 8.3-3.2 10.5-1.5 2-3.2 4.4-3.2 8.6v2.7h15.3v3.9h5.3v-3.9h15.2v-2.7c0-4.2-1.7-6.5-3.2-8.6-1.7-2.2-3.2-4.4-3.2-10.5zm-22.2 15.6q0.4-0.6 1-1.4c1.9-2.6 4.4-6 4.4-14.2 0-3 2.3-5.3 5.3-5.3 3 0 5.3 2.3 5.3 5.3 0 8.2 2.5 11.6 4.4 14.2q0.6 0.8 1 1.4zm-44.8-26.6h-17.7v32.8h17.7c5.4 0 9.8-4.4 9.8-9.8 0-2.5-1-4.9-2.7-6.6 1.7-1.7 2.7-4.1 2.7-6.6 0-5.4-4.4-9.8-9.8-9.8zm-11.5 9.5l8.8 6.9-8.8 6.9v-13.8zm11.5 17.1h-5.7l8-6.3c0.8 0.7 1.3 1.7 1.3 2.7 0 2-1.6 3.6-3.6 3.6zm2.3-14.1l-8-6.3h5.7c2 0 3.6 1.6 3.6 3.6 0 1.1-0.5 2-1.3 2.7zm10 20.3h6.2v-12l10.6 3.7v8.3h6.2v-12.7l-4-1.4c2.1-2 3.4-4.8 3.4-8 0-6.1-5-11.2-11.2-11.2-6.1 0-11.2 5.1-11.2 11.2v22.1zm11.2-17.1c-2.7 0-5-2.2-5-5 0-2.7 2.3-5 5-5 2.8 0 5 2.3 5 5 0 2.8-2.2 5-5 5zm57.2 6.7c-1.2-1.7-1.9-3.8-1.9-6 0-5.9 4.8-10.7 10.7-10.7 2.8 0 5.5 1.1 7.5 3.2l4.4-4.4c-3.2-3.2-7.4-5-11.9-5-9.3 0-16.9 7.6-16.9 16.9 0 9.3 7.6 16.9 16.9 16.9 9.3 0 16.8-7.6 16.8-16.9v-3.1h-18.2zm19.1-2.9c-1.4 4.4-5.5 7.6-10.3 7.6-1.4 0-2.7-0.3-4-0.8l5.6-6.8zm22.8-20c-7.6 0-13.6 6-13.6 13.7v19.6h6.1v-5.6c0-4.2 3.2-7.4 7.5-7.4 4.3 0 7.5 3.2 7.5 7.4v5.6h6.2v-19.6c0-7.7-6-13.7-13.7-13.7zm7.5 16.3c-2.2-1.4-4.7-2.2-7.5-2.2-2.8 0-5.3 0.8-7.5 2.2v-2.6c0-4.3 3.2-7.5 7.5-7.5 4.3 0 7.5 3.2 7.5 7.5z"/></svg>